<svg xmlns="http://www.w3.org/2000/svg" viewBox="0 0 500 83"><defs><style>.cls-1{fill:#06262d;}.cls-2{fill:#00dd7e;}</style></defs><g id="Camada_2" data-name="Camada 2"><g id="Layer_1" data-name="Layer 1"><path class="cls-1" d="M130.16,63.21c-13.25,0-19.49-7.86-19.49-14.33h9.47c0,2,3.78,5.47,11,5.47,5.85,0,7.78-2.08,7.78-4.24,0-7.55-28-2.54-28-16.41,0-6,5.77-11.4,18-11.4,13.63,0,18.79,6.7,18.79,12.1h-9.47c0-2.47-3.62-4.39-9.86-4.39-4.24,0-7.94,1.15-7.94,3.62,0,5.54,28.12.23,28.12,15.86C148.57,57,142.71,63.21,130.16,63.21Z"/><path class="cls-1" d="M167.72,63.13c-7.55,0-14.86-4.55-14.86-13.25V23.46h9.47V43.79c0,8,3.62,11,8.78,11,5.63,0,10.25-3.39,10.25-11V23.46h9.4V62h-9.4V60.43c.07-2.08,1.46-4.47,2.15-6.47l-1.61-.61c-.7,2-1.24,4.77-2.78,6.24C176,62.67,173,63.13,167.72,63.13Z"/><path class="cls-1" d="M205.16,81.23l-9.47.08V23.54l9.47-.08v2.77c0,2.31-1.31,5-2.08,7.24l1.62.54c.77-2.23,1.15-5.39,2.7-7a15.92,15.92,0,0,1,12-4.77c11.56,0,19.49,8.93,19.26,20.33-.31,11.09-8.09,20.57-19.26,20.57a16,16,0,0,1-11.94-5c-1.62-1.62-2-4.77-2.77-6.93l-1.62.54c.69,2.23,2.08,4.93,2.08,7.24Zm1.7-38.82c0,6.55,4.08,11.94,11.24,11.94S229.19,49,229.19,42.41,225.34,31,218.1,31,206.86,35.94,206.86,42.41Z"/><path class="cls-1" d="M280.1,28.21a21,21,0,0,0-15.32-6c-6.6,0-12,2-16.16,5.9a19.17,19.17,0,0,0-6.3,14.55,19.14,19.14,0,0,0,6.39,14.7c4.26,3.81,9.9,5.75,16.74,5.75,8.22,0,14.49-2.85,18.62-8.48l.2-.27-8-4.26-.15.2c-2.39,3.08-6,4.64-10.61,4.64-6.81,0-11.66-3.16-13.06-8.47h33.29l.05-.24a21.33,21.33,0,0,0,.34-3.5A19.81,19.81,0,0,0,280.1,28.21Zm-15.41,2.11c6.05,0,10.38,3.3,11.65,8.85h-24C253.73,33.62,258.31,30.32,264.69,30.32Z"/><path class="cls-1" d="M382.68,28.21a21,21,0,0,0-15.32-6c-6.6,0-12,2-16.16,5.9a19.18,19.18,0,0,0-6.31,14.55,19.15,19.15,0,0,0,6.4,14.7c4.26,3.81,9.89,5.75,16.74,5.75,8.22,0,14.49-2.85,18.62-8.48l.2-.27-8-4.26-.16.2c-2.38,3.08-5.95,4.64-10.6,4.64-6.81,0-11.66-3.16-13.06-8.47h33.29l0-.24a20.28,20.28,0,0,0,.34-3.5A19.8,19.8,0,0,0,382.68,28.21Zm-15.41,2.11c6.05,0,10.38,3.3,11.65,8.85H355C356.31,33.62,360.89,30.32,367.27,30.32Z"/><path class="cls-1" d="M319.17,22.3v8.78c-9.55,0-19.49,3.39-19.49,14.1V62h-9.4V23.46h9.4v1.15c0,2.93-1.62,6.47-2.77,9.17l1.61.69c1.16-2.69,2.39-6.54,4.78-8.32C307.38,23,311.62,22.3,319.17,22.3Z"/><path class="cls-1" d="M324.07,6.13h9.48V49c0,3.16,1.31,4.16,4.85,4.16h4.78V62h-5.7c-8.79,0-13.41-3.31-13.41-9.32Z"/><path class="cls-1" d="M438.29,22.3c8,0,14.25,4.47,14.25,13.25V62h-9.48V41.25c0-7.85-2.39-11.32-7.47-11.32-5.55,0-7.86,3.54-7.86,11.32V62h-9.47V41.25c0-7.85-2.47-11.32-7.71-11.32-5.62,0-8.47,3.54-8.47,11.32V62h-9.47V23.46h9.47v.46c0,3.39-1.54,7.55-2.46,10.78l1.61.54c1-3.23,1.54-8,3.93-10.32,2-2,4.39-2.62,8.32-2.62,3.47,0,6.47.62,8.55,2.39,2.62,2.16,1.54,7,1.08,10.32l1.7.23c.53-3.31,1.38-7.47,4.08-9.55A15.74,15.74,0,0,1,438.29,22.3Z"/><path class="cls-1" d="M494,28.21a21,21,0,0,0-15.32-6c-6.6,0-12,2-16.15,5.9a19.15,19.15,0,0,0-6.31,14.55,19.14,19.14,0,0,0,6.39,14.7c4.27,3.81,9.9,5.75,16.74,5.75,8.23,0,14.49-2.85,18.63-8.48l.2-.27-8-4.26-.15.2C487.6,53.4,484,55,479.39,55c-6.82,0-11.67-3.16-13.07-8.47h33.3l0-.24a21.33,21.33,0,0,0,.34-3.5A19.78,19.78,0,0,0,494,28.21Zm-15.4,2.11c6,0,10.37,3.3,11.65,8.85h-24C467.59,33.62,472.16,30.32,478.55,30.32Z"/><path class="cls-2" d="M15.72,83H61.84C73.45,83,83.2,73.5,83,61.89A20.78,20.78,0,0,0,62.25,41.5H48.19l4,5.82A2.71,2.71,0,0,1,50,51.57H16.07A16,16,0,0,0,0,67.55,15.74,15.74,0,0,0,15.72,83Z"/><path class="cls-2" d="M67.29,0H21.16C9.55,0-.19,9.5,0,21.11A20.78,20.78,0,0,0,20.75,41.5H34.81l-4-5.82A2.71,2.71,0,0,1,33,31.43H66.93A16,16,0,0,0,83,15.45,15.73,15.73,0,0,0,67.29,0Z"/></g></g></svg>